<svg xmlns="http://www.w3.org/2000/svg" width="114" height="37.495" viewBox="336.629 346.105 114 37.495"><path fill="#FF4E00" d="M365.24 371.575h2.45l-.155-2.683h-1.149a15.864 15.864 0 0 1-1.146 2.683m-26.619-2.197h-1.146l-.16 2.683h2.451a15.779 15.779 0 0 1-1.145-2.683m13.751 6.785a4.504 4.504 0 0 1-2.723-.906.486.486 0 0 1 .583-.778 3.538 3.538 0 0 0 2.141.713 3.542 3.542 0 0 0 2.141-.713.486.486 0 1 1 .582.778 4.505 4.505 0 0 1-2.724.906"/><path fill="#1D1D1B" d="M365.236 371.575a15.828 15.828 0 0 1-4.42 5.124 7.664 7.664 0 0 0 7.562 6.415l-.688-11.539h-2.454zm-25.467.486h-2.454l-.687 11.54a7.666 7.666 0 0 0 7.562-6.416 15.865 15.865 0 0 1-4.421-5.124m15.103-12.113a10.256 10.256 0 0 0 4.418-5.571l.066-.202.163 5.773h7.673c-.51-7.73-6.94-13.843-14.8-13.843-7.861 0-14.292 6.112-14.801 13.843h17.281z"/><path fill="#FF4E00" d="M359.448 360.739a5.916 5.916 0 0 0-5.402 3.52h-3.023a5.917 5.917 0 0 0-5.401-3.52c-3.258 0-5.908 2.651-5.908 5.908s2.65 5.907 5.908 5.907a5.915 5.915 0 0 0 5.908-5.907c0-.042-.002-.084-.004-.125h.004a1.005 1.005 0 1 1 2.012 0h.002l-.002.125a5.913 5.913 0 0 0 5.907 5.907c3.257 0 5.907-2.65 5.907-5.907s-2.652-5.908-5.908-5.908m-13.827 10.811a4.908 4.908 0 0 1-4.902-4.902c0-2.703 2.199-4.902 4.902-4.902s4.902 2.199 4.902 4.902c0 2.702-2.2 4.902-4.902 4.902m13.827 0a4.907 4.907 0 0 1-4.901-4.902c0-2.703 2.198-4.902 4.901-4.902s4.901 2.199 4.901 4.902a4.907 4.907 0 0 1-4.901 4.902"/><path fill="#1D1D1B" d="M385.083 358.546l4.854-.005v.389c.002.882-.103 1.663-.31 2.343a4.988 4.988 0 0 1-1.024 1.767c-1.09 1.229-2.477 1.843-4.161 1.845-1.642.001-3.051-.592-4.224-1.777-1.172-1.19-1.76-2.619-1.761-4.289-.001-1.704.594-3.149 1.784-4.338 1.19-1.193 2.641-1.79 4.35-1.791a5.955 5.955 0 0 1 2.571.56c.762.376 1.511.983 2.247 1.825l-1.263 1.211c-.965-1.283-2.139-1.924-3.523-1.923-1.243.001-2.285.432-3.126 1.288-.842.844-1.261 1.898-1.26 3.167.001 1.309.471 2.386 1.41 3.231.878.786 1.83 1.178 2.854 1.177.873-.001 1.655-.296 2.351-.885.694-.595 1.081-1.305 1.162-2.131l-2.93.003-.001-1.667zm13.506 2.802l-5.311.005c.047.608.244 1.093.595 1.452.351.355.8.532 1.348.532.426 0 .778-.103 1.058-.306.272-.203.585-.579.935-1.127l1.446.806c-.223.38-.459.706-.707.979a3.804 3.804 0 0 1-.798.669 3.19 3.19 0 0 1-.92.386c-.33.081-.688.122-1.073.122-1.105.002-1.993-.353-2.663-1.062-.671-.715-1.006-1.662-1.007-2.845-.001-1.172.322-2.12.971-2.847.653-.716 1.521-1.074 2.601-1.075 1.091 0 1.953.347 2.587 1.04.63.689.945 1.645.946 2.867l-.008.404zm-1.759-1.399c-.239-.912-.815-1.368-1.729-1.368a1.735 1.735 0 0 0-1.083.371c-.151.12-.281.266-.384.43a2.016 2.016 0 0 0-.243.571l3.439-.004zm10.379 1.39l-5.311.006c.047.608.244 1.092.595 1.452.351.354.799.532 1.347.531.427 0 .778-.103 1.057-.305.274-.203.586-.579.935-1.128l1.447.806c-.224.38-.459.707-.707.979s-.515.495-.799.67a3.114 3.114 0 0 1-.92.385 4.43 4.43 0 0 1-1.072.123c-1.106.001-1.994-.353-2.664-1.063-.669-.715-1.005-1.662-1.007-2.845-.001-1.171.323-2.12.972-2.846.653-.716 1.521-1.074 2.601-1.074 1.09-.002 1.953.345 2.587 1.039.631.688.945 1.646.946 2.867l-.007.403zm-1.759-1.398c-.24-.913-.815-1.368-1.729-1.367-.208 0-.402.032-.586.096-.181.062-.35.154-.498.273-.15.121-.28.267-.384.431a1.981 1.981 0 0 0-.243.57l3.44-.003zm5.333-8.153l.007 7.836 2.41-2.397 2.297-.003-3.215 3.114 3.457 4.295-2.222.003-2.452-3.125-.273.274.003 2.853-1.711.003-.013-12.85 1.712-.003zm14.479 6.717l4.854-.005v.389c.001.882-.103 1.664-.31 2.343a5.004 5.004 0 0 1-1.025 1.767c-1.089 1.229-2.476 1.844-4.16 1.845-1.644.003-3.051-.59-4.224-1.775-1.173-1.19-1.76-2.621-1.761-4.289-.003-1.704.592-3.15 1.783-4.338 1.189-1.193 2.64-1.79 4.351-1.793.917 0 1.774.187 2.571.562.761.374 1.509.982 2.245 1.823l-1.262 1.211c-.964-1.282-2.139-1.922-3.522-1.921-1.243.001-2.285.43-3.126 1.288-.842.843-1.262 1.898-1.26 3.165.001 1.309.471 2.386 1.409 3.232.879.785 1.83 1.178 2.854 1.178.872-.002 1.655-.297 2.351-.886.693-.594 1.081-1.304 1.161-2.131l-2.929.002v-1.667zm6.492-4.379c0-.3.108-.559.326-.777a1.07 1.07 0 0 1 .783-.328c.311 0 .573.108.792.327.218.213.327.474.327.782.001.311-.108.573-.326.793a1.05 1.05 0 0 1-.783.326 1.069 1.069 0 0 1-.791-.325 1.087 1.087 0 0 1-.328-.798m1.974 3.078l.006 7.41-1.711.001-.008-7.409 1.713-.002zm2.168-.002l1.711-.002.001.663c.313-.33.593-.557.837-.679.248-.127.542-.19.882-.19.452-.001.923.146 1.416.439L439.96 359c-.324-.232-.641-.35-.951-.348-.933 0-1.398.705-1.397 2.115l.004 3.842-1.712.001-.008-7.408zm6.07 7.404l-.013-12.849 1.713-.003.012 12.85-1.712.002zm8.181-6.155l-1.415.755c-.224-.455-.5-.685-.83-.683a.57.57 0 0 0-.403.155.527.527 0 0 0-.167.399c0 .284.33.565.99.844.908.39 1.52.749 1.835 1.079.314.329.472.772.473 1.33a2.34 2.34 0 0 1-.79 1.797c-.512.456-1.13.686-1.855.687-1.243.001-2.123-.604-2.642-1.816l1.461-.678c.202.354.357.58.464.677.208.191.457.288.745.288.578-.001.867-.265.866-.792 0-.305-.223-.588-.669-.852a27.367 27.367 0 0 0-.518-.251 59.578 59.578 0 0 1-.525-.25c-.497-.243-.848-.486-1.05-.729-.261-.309-.39-.707-.39-1.194 0-.644.219-1.177.66-1.599.451-.422.998-.633 1.642-.633.949-.001 1.654.488 2.118 1.466m-62.416 8.918l.003 2.101c-1.026-.856-2.086-1.284-3.182-1.283-1.206.002-2.223.437-3.049 1.304-.831.863-1.247 1.919-1.245 3.167.001 1.232.418 2.271 1.251 3.117.832.847 1.853 1.27 3.06 1.269.623-.001 1.153-.103 1.59-.307a4.68 4.68 0 0 0 .757-.411c.26-.173.534-.381.824-.624l.001 2.137a6.397 6.397 0 0 1-3.193.862c-1.68.003-3.112-.582-4.3-1.753-1.184-1.181-1.776-2.604-1.777-4.273-.001-1.496.492-2.83 1.48-4.003 1.216-1.437 2.79-2.156 4.722-2.157 1.054-.002 2.073.282 3.058.854m7.376 3.698l1.719-.001.007 7.41-1.72.001v-.775c-.704.66-1.462.99-2.273.991-1.025 0-1.872-.369-2.542-1.109-.665-.755-.999-1.697-1-2.828 0-1.11.331-2.037.995-2.778s1.494-1.111 2.494-1.112c.862-.002 1.637.354 2.32 1.063v-.862zm-4.059 3.687c0 .71.19 1.288.571 1.733.392.452.884.677 1.477.676.635 0 1.146-.218 1.537-.655.39-.452.585-1.025.584-1.72 0-.695-.197-1.269-.588-1.719-.391-.44-.898-.661-1.521-.66-.589 0-1.08.225-1.476.671-.392.452-.585 1.01-.584 1.674m7.939-3.691l1.712-.001v.663c.314-.33.593-.557.837-.679.248-.127.542-.19.882-.191.451 0 .924.146 1.416.44l-.783 1.567c-.324-.232-.642-.349-.951-.349-.933.001-1.399.706-1.397 2.116l.003 3.842-1.711.001-.008-7.409zm6.063-.004l1.711-.002.001.663c.313-.331.593-.557.836-.679.249-.126.543-.19.883-.19.45 0 .922.146 1.414.439l-.781 1.568c-.325-.233-.643-.351-.951-.349-.933 0-1.399.705-1.397 2.115l.003 3.842-1.711.001-.008-7.408zm5.344 3.647c-.002-1.07.381-1.98 1.146-2.733.765-.75 1.698-1.127 2.798-1.128 1.105-.001 2.044.376 2.816 1.131.762.756 1.143 1.683 1.144 2.784 0 1.109-.381 2.041-1.146 2.792-.771.746-1.716 1.12-2.836 1.121-1.111.001-2.043-.379-2.794-1.139-.75-.75-1.127-1.692-1.128-2.828m1.749.028c.001.74.199 1.326.596 1.757.405.436.94.653 1.605.653.67-.002 1.204-.218 1.604-.648.4-.432.601-1.008.601-1.729-.002-.72-.203-1.295-.604-1.726-.406-.437-.941-.653-1.606-.653-.654.002-1.184.22-1.589.656-.404.436-.607 1-.607 1.69m9.82-2.093l.005 5.812-1.712.003-.005-5.813-.73.001-.001-1.598h.729l-.003-2.716 1.713-.002.002 2.717 1.332-.002.001 1.598h-1.331zm6.801-.341l-1.414.754c-.225-.456-.501-.684-.831-.684a.571.571 0 0 0-.402.156.524.524 0 0 0-.167.4c0 .283.33.564.99.843.908.39 1.52.749 1.834 1.078.314.33.472.773.473 1.331 0 .715-.263 1.314-.79 1.796-.511.458-1.13.687-1.855.687-1.243.001-2.122-.604-2.641-1.815l1.46-.679c.202.355.357.581.465.677.207.193.456.29.746.288.578 0 .866-.265.866-.791-.001-.305-.224-.589-.671-.853-.172-.085-.345-.169-.518-.25s-.348-.164-.525-.25c-.497-.243-.848-.486-1.05-.729-.26-.31-.389-.708-.39-1.194 0-.645.22-1.177.66-1.598.452-.422.999-.633 1.644-.634.948 0 1.653.488 2.116 1.467"/></svg>